<?xml version="1.0" encoding="UTF-8"?>
<svg version="1.1" xmlns="http://www.w3.org/2000/svg" width="570" height="570">
<path d="M0 0 C0.79190762 -0.00581376 1.58381525 -0.01162753 2.39972007 -0.01761746 C5.05782003 -0.03223518 7.71499916 -0.01832421 10.37309265 -0.00457001 C12.2961566 -0.00917822 14.21921704 -0.0155306 16.14227009 -0.02347898 C21.43035931 -0.04020629 26.71816048 -0.03191042 32.00625086 -0.01953411 C37.70776496 -0.01049989 43.40922884 -0.02444526 49.11073303 -0.0354538 C60.28141813 -0.05326099 71.45199585 -0.04938921 82.62268519 -0.03780323 C91.69954101 -0.02877785 100.77636669 -0.02754104 109.85322571 -0.0318985 C111.14399877 -0.03251143 112.43477183 -0.03312436 113.76465923 -0.03375587 C116.38665764 -0.03503474 119.00865605 -0.03633159 121.63065445 -0.03764623 C145.52842091 -0.04873301 169.42612629 -0.03722627 193.32388301 -0.01627585 C215.14297062 0.00270681 236.96196485 0.00100831 258.78105164 -0.01811981 C283.29102205 -0.03953508 307.80093248 -0.04795979 332.31091213 -0.03567076 C334.92338498 -0.03439653 337.53585783 -0.03313905 340.14833069 -0.0318985 C341.43379187 -0.0312814 342.71925306 -0.03066429 344.04366761 -0.03002849 C353.11195427 -0.02657158 362.18020785 -0.0324113 371.24848938 -0.04181671 C382.29635912 -0.05302318 393.34411515 -0.05002507 404.39197183 -0.02869374 C410.03116253 -0.01816518 415.67016348 -0.01409232 421.30935287 -0.02729034 C426.46853966 -0.03918254 431.62736027 -0.03270401 436.78651369 -0.01138014 C438.65587322 -0.00690061 440.5252635 -0.00921046 442.39460337 -0.01888329 C444.93069761 -0.03100266 447.46552867 -0.01861816 450.0015564 0 C450.73170421 -0.00936466 451.46185201 -0.01872933 452.21412551 -0.02837777 C457.25742188 0.0459016 460.11378372 1.33949818 464.0007782 4.50336456 C467.78118488 9.75437342 467.4838856 15.21752761 467.4382782 21.44086456 C467.45825867 22.40443878 467.47823914 23.368013 467.49882507 24.36078644 C467.49457842 30.57363457 467.01484427 34.63955938 463.0007782 39.50336456 C457.87808901 42.31413594 452.63185165 42.93766101 446.85475159 42.88088799 C445.67952277 42.88742847 445.67952277 42.88742847 444.48055196 42.89410108 C441.86325511 42.90502265 439.2464889 42.89464993 436.62919617 42.88431549 C434.73058236 42.88777328 432.83197056 42.89253865 430.93336296 42.89849722 C425.722104 42.91102022 420.51100988 42.90483086 415.29975033 42.89553857 C409.67731548 42.88875378 404.05490907 42.89922649 398.43247986 42.90747833 C387.42049876 42.92082392 376.40857898 42.91793423 365.39659548 42.90924041 C356.44757363 42.90246753 347.49856897 42.90154543 338.54954529 42.90481186 C337.27627282 42.90527156 336.00300035 42.90573126 334.69114387 42.90620489 C332.10458199 42.90716405 329.51802011 42.90813669 326.93145823 42.90912266 C303.36422956 42.91743502 279.79704199 42.90881218 256.22982022 42.89309487 C234.71921017 42.87885822 213.20865341 42.88013211 191.69804382 42.89447784 C167.52644649 42.91054437 143.35488705 42.91685498 119.18328285 42.90764105 C116.60619228 42.9066854 114.02910169 42.90574229 111.45201111 42.90481186 C110.18400598 42.90434903 108.91600086 42.90388621 107.60957134 42.90340935 C98.67044731 42.90081819 89.73134217 42.9051932 80.79222107 42.91225052 C69.89964984 42.92066096 59.00714347 42.91839493 48.11457968 42.90240829 C42.5561653 42.89451949 36.9978591 42.89144443 31.4394455 42.90135574 C26.35184089 42.9102904 21.26444481 42.90538992 16.17685914 42.88942309 C14.33578582 42.8860701 12.4946949 42.88778097 10.65363288 42.89505045 C8.15110643 42.90417426 5.64929407 42.89481505 3.14680481 42.88088799 C2.07476079 42.89142323 2.07476079 42.89142323 0.98105931 42.90217131 C-4.05405054 42.84617184 -8.57556616 41.92167568 -12.9992218 39.50336456 C-17.79275799 33.7632375 -17.57931321 28.12752788 -17.4367218 20.87836456 C-17.44381165 19.85484894 -17.45090149 18.83133331 -17.45820618 17.77680206 C-17.37741931 8.23152334 -17.37741931 8.23152334 -13.9992218 4.50336456 C-9.36564258 0.79019547 -5.79340254 -0.0743045 0 0 Z " fill="#F6F6F6" transform="translate(59.99922180175781,203.49663543701172)"/>
<path d="M0 0 C0.79383093 -0.00525911 1.58766186 -0.01051822 2.40554827 -0.0159367 C5.07606921 -0.02993643 7.74610154 -0.02251572 10.41664314 -0.01523495 C12.34638022 -0.02083791 14.27611389 -0.02773947 16.20584214 -0.03583091 C21.51700655 -0.05422116 26.82802956 -0.05377993 32.13921857 -0.05024779 C37.86394844 -0.04963668 43.5886325 -0.0661832 49.31334114 -0.08042049 C60.53193031 -0.10536121 71.75047219 -0.11358595 82.96908675 -0.11525763 C92.08552481 -0.11668203 101.20194724 -0.12284083 110.31838036 -0.1323595 C131.94632924 -0.15448298 153.5742635 -0.17293337 175.20222473 -0.17136383 C176.23988272 -0.17129373 176.23988272 -0.17129373 177.2985035 -0.17122221 C180.80475869 -0.17097288 184.31101388 -0.17067576 187.81726907 -0.17036808 C188.51363476 -0.17030825 189.21000044 -0.17024841 189.92746811 -0.17018676 C191.33568912 -0.17006545 192.74391014 -0.16994006 194.15213115 -0.16981059 C216.06507871 -0.16797205 237.97788704 -0.19049645 259.89079475 -0.23152828 C284.50477889 -0.27759878 309.11866269 -0.3033897 333.73269379 -0.30063862 C346.76732971 -0.29964153 359.80180861 -0.30793417 372.83640862 -0.34017277 C383.93297658 -0.36744164 395.02931634 -0.37405179 406.12590323 -0.3536445 C411.78961022 -0.34382544 417.45287898 -0.34376189 423.11654472 -0.36970425 C428.29939862 -0.39320054 433.48146443 -0.38910863 438.66429831 -0.36285185 C440.54111504 -0.35822482 442.41798962 -0.36377826 444.29473816 -0.38043208 C446.84381257 -0.40155727 449.39010794 -0.38578777 451.93908691 -0.36076355 C453.03560991 -0.38312036 453.03560991 -0.38312036 454.15428489 -0.40592882 C459.396209 -0.29690888 462.03807463 1.41504897 465.75322319 4.80668462 C469.31048152 8.9922386 468.31866498 15.03149796 468.3453846 20.19840336 C468.3763221 21.67663578 468.3763221 21.67663578 468.4078846 23.18473148 C468.44240066 29.60903343 467.82478251 34.08788088 463.5953846 39.19840336 C460.00436608 42.04129302 455.79356502 41.52771108 451.46251297 41.51733112 C450.27939444 41.52041007 450.27939444 41.52041007 449.07237452 41.52355123 C446.40726911 41.52924329 443.74221502 41.52776127 441.07710457 41.52634525 C439.15592129 41.52892762 437.23473855 41.53194042 435.31355655 41.53534865 C430.01685159 41.54343689 424.72016016 41.54520924 419.42344975 41.54594612 C413.71782837 41.54779349 408.01221406 41.55533916 402.30659676 41.56208134 C389.82336668 41.57567758 377.3401398 41.58169123 364.85690355 41.586092 C357.06747844 41.58885193 349.27805457 41.5930888 341.48863029 41.59759617 C319.93624932 41.60978994 298.38386997 41.62012482 276.83148575 41.62347126 C275.43750224 41.62369289 274.04351874 41.62391468 272.64953523 41.62413661 C271.25215729 41.62435725 269.85477934 41.62457774 268.45740139 41.62479806 C265.65394918 41.62524062 262.85049697 41.62568773 260.04704475 41.62613773 C259.35195051 41.62624712 258.65685627 41.62635652 257.94069857 41.62646922 C235.39383861 41.63010119 212.84701077 41.64602656 190.30016311 41.6693281 C166.47116365 41.69390976 142.64218627 41.70763657 118.81317317 41.70883918 C105.81997729 41.70975729 92.82682347 41.71554396 79.83363914 41.73365879 C68.77215368 41.74902581 57.71072329 41.75420035 46.64922918 41.74592069 C41.00210435 41.74200226 35.35509052 41.74300176 29.7079792 41.75697803 C24.54262489 41.76964551 19.37746582 41.76858281 14.21211205 41.75638732 C12.33931039 41.75441786 10.46649523 41.75756583 8.59371258 41.76623169 C6.05554789 41.77723674 3.51808295 41.76989884 0.97993851 41.75784016 C0.24630614 41.76543535 -0.48732622 41.77303054 -1.24318987 41.78085589 C-6.60646498 41.72553376 -9.6494357 40.31891453 -13.6546154 36.88590336 C-17.19735533 32.63461544 -16.12893609 26.27667314 -16.1546154 21.07340336 C-16.1752404 20.04021976 -16.1958654 19.00703617 -16.2171154 17.94254398 C-16.26821118 7.98525497 -16.26821118 7.98525497 -12.9046154 3.38590336 C-8.75328042 0.19254929 -5.06040875 -0.04241179 0 0 Z " fill="#FCFCFC" transform="translate(58.90461540222168,324.6140966415405)"/>
</svg>
