<?xml version="1.0" encoding="UTF-8"?>
<svg version="1.1" xmlns="http://www.w3.org/2000/svg" width="570" height="570">
<path d="M0 0 C3.08128948 1.5181301 5.44735116 3.72296939 8 6 C9.07352078 6.92030691 10.14922215 7.83807359 11.2265625 8.75390625 C13.65417487 10.82123811 16.07212746 12.89914103 18.484375 14.984375 C22.34047104 18.30687072 26.28036518 21.52064813 30.23046875 24.73046875 C36.10799411 29.54688939 41.87611914 34.494943 47.66601562 39.41601562 C53.22068034 44.1351961 58.78059925 48.84075049 64.4375 53.4375 C69.30049424 57.39443418 74.05700203 61.46435942 78.80615234 65.55615234 C83.22308718 69.35401501 87.70953997 73.05680041 92.23046875 76.73046875 C98.10799411 81.54688939 103.87611914 86.494943 109.66601562 91.41601562 C115.22068034 96.1351961 120.78059925 100.84075049 126.4375 105.4375 C131.2968454 109.39146518 136.05045329 113.45760546 140.79516602 117.54736328 C145.30566585 121.42697626 149.89271018 125.20317434 154.51171875 128.953125 C158.07952273 131.88802184 161.55120297 134.92671669 165 138 C167.78823237 136.71076019 169.98996602 135.31380469 172.28515625 133.27734375 C172.89238525 132.74359131 173.49961426 132.20983887 174.12524414 131.65991211 C174.76453857 131.09151611 175.40383301 130.52312012 176.0625 129.9375 C177.41562113 128.74880878 178.7697935 127.56131318 180.125 126.375 C180.78757812 125.79492188 181.45015625 125.21484375 182.1328125 124.6171875 C184.56937304 122.50686101 187.05722858 120.46557686 189.5625 118.4375 C193.77198715 115.02862853 197.89757094 111.53596636 202 108 C207.01310059 103.68060414 212.0853771 99.44902564 217.22265625 95.27734375 C220.34396267 92.71796028 223.42453424 90.11410084 226.5 87.5 C230.44650481 84.14552873 234.41642072 80.82778171 238.4375 77.5625 C243.30129025 73.60491812 248.05881231 69.53457554 252.80834961 65.44165039 C257.1980035 61.66665609 261.66114771 57.99271539 266.15625 54.34375 C269.47686486 51.60697951 272.74046782 48.8089705 276 46 C280.98940767 41.70027287 286.04221156 37.49514591 291.15625 33.34375 C294.4768681 30.60697684 297.7403756 27.80886743 301 25 C306.0488162 20.65162924 311.14607871 16.37504814 316.3203125 12.17578125 C318.23819216 10.61855243 320.1488532 9.05241647 322.0546875 7.48046875 C323.04726563 6.66191406 324.03984375 5.84335938 325.0625 5 C325.96097656 4.2575 326.85945313 3.515 327.78515625 2.75 C331.3947677 -0.10203868 334.03754313 -0.53668055 338.5703125 -0.45703125 C343.24882179 0.42300989 345.89661249 3.58391374 349 7 C349.80179687 7.88042969 350.60359375 8.76085937 351.4296875 9.66796875 C359.41501452 18.916151 359.41501452 18.916151 360 25 C358.79012004 34.6790397 350.18980022 39.7634942 343.08984375 45.48046875 C339.67590783 48.26427237 336.33456179 51.12215287 333 54 C328.01094074 58.30012283 322.95777495 62.50486504 317.84375 66.65625 C314.52313406 69.39302138 311.25956291 72.19106385 308 75 C302.98408311 79.32172863 297.90824701 83.55479196 292.76953125 87.73046875 C287.45558334 92.08505794 282.23473234 96.55078435 277 101 C270.89111965 106.19219022 264.78489359 111.38123581 258.5625 116.4375 C253.69870975 120.39508188 248.94118769 124.46542446 244.19165039 128.55834961 C239.8019965 132.33334391 235.33885229 136.00728461 230.84375 139.65625 C227.52313109 142.39302383 224.25964819 145.19115891 221 148 C205.57293621 161.28470919 205.57293621 161.28470919 200 165 C201.50224846 168.73892951 203.60165298 170.54093605 206.75 173 C211.24886603 176.5802494 215.65082361 180.23945187 220 184 C224.12402113 187.55526754 228.27210903 191.06794733 232.5 194.5 C236.7279248 197.93208013 240.8752789 201.44551171 245 205 C250.01591689 209.32172863 255.09175299 213.55479196 260.23046875 217.73046875 C266.10799411 222.54688939 271.87611914 227.494943 277.66601562 232.41601562 C283.22068034 237.1351961 288.78059925 241.84075049 294.4375 246.4375 C299.30049424 250.39443418 304.05700203 254.46435942 308.80615234 258.55615234 C313.22308718 262.35401501 317.70953997 266.05680041 322.23046875 269.73046875 C326.97521948 273.61862132 331.64184121 277.59879537 336.31640625 281.57080078 C338.60369935 283.51247911 340.89530057 285.44903794 343.18701172 287.38549805 C344.82629765 288.7713277 346.46409623 290.1588961 348.1015625 291.546875 C349.84242823 293.02027618 351.58626729 294.49019004 353.3359375 295.953125 C358.70987723 300.47162126 358.70987723 300.47162126 359.37890625 303.99609375 C360.00659051 312.34295885 356.19918002 316.82360184 351 323 C350.29359375 323.93199219 349.5871875 324.86398437 348.859375 325.82421875 C347.93898438 326.90123047 347.93898438 326.90123047 347 328 C346.34 328 345.68 328 345 328 C345 328.66 345 329.32 345 330 C342.11573174 331.63137345 339.93868468 332.31686518 336.625 332.375 C335.89539063 332.40335937 335.16578125 332.43171875 334.4140625 332.4609375 C328.69349911 331.36866164 324.23946027 326.65216194 319.9375 322.9375 C318.7930148 321.95958152 317.64848219 320.98171853 316.50390625 320.00390625 C315.92398926 319.50648926 315.34407227 319.00907227 314.74658203 318.49658203 C311.96451594 316.11273172 309.17072767 313.74280164 306.375 311.375 C305.83343262 310.91593262 305.29186523 310.45686523 304.73388672 309.98388672 C301.37203848 307.1406484 297.9796808 304.3392721 294.5625 301.5625 C289.69950576 297.60556582 284.94299797 293.53564058 280.19384766 289.44384766 C275.77691282 285.64598499 271.29046003 281.94319959 266.76953125 278.26953125 C260.89200589 273.45311061 255.12388086 268.505057 249.33398438 263.58398438 C243.77931966 258.8648039 238.21940075 254.15924951 232.5625 249.5625 C227.69870975 245.60491812 222.94118769 241.53457554 218.19165039 237.44165039 C214.66701081 234.41054711 211.10960118 231.43014684 207.5 228.5 C203.27206945 225.0679152 199.12483831 221.55435824 195 218 C185.84241752 210.114442 176.45418 202.52642963 167 195 C162.96194134 196.36266644 160.45631882 198.1409151 157.375 201.0625 C153.91579043 204.26660562 150.41723434 207.34842269 146.75 210.3125 C142.4354891 213.80432874 138.20294472 217.37580835 134 221 C128.98423478 225.32190074 123.90824112 229.55479675 118.76953125 233.73046875 C113.45558334 238.08505794 108.23473234 242.55078435 103 247 C96.89111965 252.19219022 90.78489359 257.38123581 84.5625 262.4375 C80.31607618 265.89274151 76.14703706 269.42697834 72 273 C66.98403597 277.32167542 61.90824892 281.55479041 56.76953125 285.73046875 C51.45558334 290.08505794 46.23473234 294.55078435 41 299 C33.99747409 304.95173656 26.97448492 310.86653427 19.83984375 316.66015625 C17.72939681 318.39902519 15.64154861 320.15350079 13.56640625 321.93359375 C12.98375 322.43246094 12.40109375 322.93132812 11.80078125 323.4453125 C10.66881663 324.41702146 9.53974961 325.39211942 8.4140625 326.37109375 C3.27663445 330.77826395 -0.03137216 332.52356056 -6.7734375 332.29296875 C-13.91506987 331.35328028 -17.73274265 324.98991025 -21.94921875 319.75390625 C-25.87128014 314.48713809 -27.71468684 311.0877112 -27.4609375 304.48046875 C-26.11537401 297.2395127 -18.52949983 292.82991359 -13.125 288.51953125 C-9.67641656 285.76441296 -6.33951007 282.88559166 -3 280 C2.01250351 275.67992865 7.08540119 271.44900608 12.22265625 267.27734375 C15.34396267 264.71796028 18.42453424 262.11410084 21.5 259.5 C25.44650481 256.14552873 29.41642072 252.82778171 33.4375 249.5625 C38.30129025 245.60491812 43.05881231 241.53457554 47.80834961 237.44165039 C52.1980035 233.66665609 56.66114771 229.99271539 61.15625 226.34375 C64.47686486 223.60697951 67.74046782 220.8089705 71 218 C75.98940767 213.70027287 81.04221156 209.49514591 86.15625 205.34375 C89.47686486 202.60697951 92.74046782 199.8089705 96 197 C100.98031661 192.70810728 106.02298955 188.50958054 111.12890625 184.3671875 C115.2160411 180.99738652 119.22625624 177.53996601 123.23046875 174.07226562 C125.5790294 172.04420809 127.8853705 170.08211708 130.41015625 168.2734375 C130.93480469 167.85320312 131.45945313 167.43296875 132 167 C132 166.34 132 165.68 132 165 C130.49212839 163.62508701 128.91460239 162.32635538 127.3125 161.0625 C126.30574219 160.25683594 125.29898438 159.45117188 124.26171875 158.62109375 C123.72595215 158.19296387 123.19018555 157.76483398 122.63818359 157.32373047 C119.92961458 155.13507753 117.27776012 152.88071013 114.625 150.625 C114.08351318 150.16569092 113.54202637 149.70638184 112.98413086 149.2331543 C110.76628112 147.35143157 108.55019674 145.46763498 106.33398438 143.58398438 C100.77931966 138.8648039 95.21940075 134.15924951 89.5625 129.5625 C84.69870975 125.60491812 79.94118769 121.53457554 75.19165039 117.44165039 C71.66701081 114.41054711 68.10960118 111.43014684 64.5 108.5 C60.2720752 105.06791987 56.1247211 101.55448829 52 98 C46.98408311 93.67827137 41.90824701 89.44520804 36.76953125 85.26953125 C30.89200589 80.45311061 25.12388086 75.505057 19.33398438 70.58398438 C13.77931966 65.8648039 8.21940075 61.15924951 2.5625 56.5625 C-2.95763341 52.06730364 -8.36788761 47.45177555 -13.75 42.79296875 C-15.6654751 41.13632666 -17.5932833 39.51976611 -19.5625 37.92578125 C-23.97748081 34.31426202 -26.61671119 31.63196158 -28 26 C-27.45547863 17.83217951 -22.20789657 12.9455338 -17 7 C-15.99066406 5.66001953 -15.99066406 5.66001953 -14.9609375 4.29296875 C-10.87144512 -0.48896756 -6.00891241 -1.08340992 0 0 Z " fill="#F8F8F8" transform="translate(119,119)"/>
<path d="M0 0 C0.66 0.33 1.32 0.66 2 1 C-0.31 3.31 -2.62 5.62 -5 8 C-5.66 7.67 -6.32 7.34 -7 7 C-2.25 1.125 -2.25 1.125 0 0 Z " fill="#A2A2A2" transform="translate(108,120)"/>
</svg>
